<?xml version="1.0" encoding="UTF-8" standalone="no"?>
<!DOCTYPE svg PUBLIC "-//W3C//DTD SVG 1.1//EN"
 "http://www.w3.org/Graphics/SVG/1.1/DTD/svg11.dtd">
<!-- Generated by graphviz version 2.43.0 (0)
 -->
<!-- Title: dependency&#45;cruiser output Pages: 1 -->
<svg width="366pt" height="205pt"
 viewBox="0.00 0.00 366.00 205.40" xmlns="http://www.w3.org/2000/svg" xmlns:xlink="http://www.w3.org/1999/xlink">
<g id="graph0" class="graph" transform="scale(1 1) rotate(0) translate(4 201.4)">
<title>dependency&#45;cruiser output</title>
<polygon fill="white" stroke="transparent" points="-4,4 -4,-201.4 362,-201.4 362,4 -4,4"/>
<g id="clust1" class="cluster">
<title>cluster_src</title>
<path fill="#ffffff" stroke="black" stroke-width="2" d="M20,-8C20,-8 338,-8 338,-8 344,-8 350,-14 350,-20 350,-20 350,-177.4 350,-177.4 350,-183.4 344,-189.4 338,-189.4 338,-189.4 20,-189.4 20,-189.4 14,-189.4 8,-183.4 8,-177.4 8,-177.4 8,-20 8,-20 8,-14 14,-8 20,-8"/>
<text text-anchor="middle" x="179" y="-178.2" font-family="Helvetica,sans-Serif" font-weight="bold" font-size="9.00">src</text>
</g>
<g id="clust2" class="cluster">
<title>cluster_src/benchmarks</title>
<path fill="#ffffff" stroke="black" stroke-width="2" d="M274,-50C274,-50 330,-50 330,-50 336,-50 342,-56 342,-62 342,-62 342,-113.8 342,-113.8 342,-119.8 336,-125.8 330,-125.8 330,-125.8 274,-125.8 274,-125.8 268,-125.8 262,-119.8 262,-113.8 262,-113.8 262,-62 262,-62 262,-56 268,-50 274,-50"/>
<text text-anchor="start" x="270" y="-114.6" font-family="Helvetica,sans-Serif" font-weight="bold" font-size="9.00">benchmarks</text>
</g>
<g id="clust3" class="cluster">
<title>cluster_src/server</title>
<path fill="#ffffff" stroke="black" stroke-width="2" d="M40,-42C40,-42 231,-42 231,-42 237,-42 243,-48 243,-54 243,-54 243,-151.4 243,-151.4 243,-157.4 237,-163.4 231,-163.4 231,-163.4 40,-163.4 40,-163.4 34,-163.4 28,-157.4 28,-151.4 28,-151.4 28,-54 28,-54 28,-48 34,-42 40,-42"/>
<text text-anchor="start" x="119" y="-152.2" font-family="Helvetica,sans-Serif" font-weight="bold" font-size="9.00">server</text>
</g>
<g id="clust4" class="cluster">
<title>cluster_src/server/transports</title>
<path fill="#ffffff" stroke="black" stroke-width="2" d="M176,-50C176,-50 223,-50 223,-50 229,-50 235,-56 235,-62 235,-62 235,-113.8 235,-113.8 235,-119.8 229,-125.8 223,-125.8 223,-125.8 176,-125.8 176,-125.8 170,-125.8 164,-119.8 164,-113.8 164,-113.8 164,-62 164,-62 164,-56 170,-50 176,-50"/>
<text text-anchor="start" x="172" y="-114.6" font-family="Helvetica,sans-Serif" font-weight="bold" font-size="9.00">transports</text>
</g>
<!-- src -->
<!-- src/benchmarks -->
<!-- src/benchmarks/utils -->
<g id="node3" class="node">
<title>src/benchmarks/utils</title>
<g id="a_node3"><a xlink:href="src/benchmarks/utils" xlink:title="utils">
<polygon fill="#ffffcc" stroke="black" points="324,-76 272,-76 270,-74 270,-58 322,-58 324,-60 324,-76"/>
<polyline fill="none" stroke="black" points="322,-74 270,-74 "/>
<polyline fill="none" stroke="black" points="322,-74 322,-58 "/>
<polyline fill="none" stroke="black" points="322,-74 324,-76 "/>
<text text-anchor="start" x="287.5" y="-64.8" font-family="Helvetica,sans-Serif" font-size="9.00">utils</text>
</a>
</g>
</g>
<!-- src/benchmarks&#45;&gt;src/benchmarks/utils -->
<g id="edge1" class="edge">
<title>src/benchmarks&#45;&gt;src/benchmarks/utils</title>
<path fill="none" stroke="#000000" stroke-width="2" stroke-opacity="0.200000" d="M295.47,-96.28C293.47,-94.26 292.48,-88.26 292.5,-82.3"/>
<polygon fill="#000000" fill-opacity="0.200000" stroke="#000000" stroke-width="2" stroke-opacity="0.200000" points="294.61,-82.18 292.92,-76.05 290.42,-81.89 294.61,-82.18"/>
</g>
<!-- src/shared -->
<g id="node4" class="node">
<title>src/shared</title>
<g id="a_node4"><a xlink:href="src/shared" xlink:title="shared">
<polygon fill="#ffffcc" stroke="black" points="280,-34 228,-34 226,-32 226,-16 278,-16 280,-18 280,-34"/>
<polyline fill="none" stroke="black" points="278,-32 226,-32 "/>
<polyline fill="none" stroke="black" points="278,-32 278,-16 "/>
<polyline fill="none" stroke="black" points="278,-32 280,-34 "/>
<text text-anchor="start" x="237.5" y="-22.8" font-family="Helvetica,sans-Serif" font-size="9.00">shared</text>
</a>
</g>
</g>
<!-- src/benchmarks&#45;&gt;src/shared -->
<g id="edge2" class="edge">
<title>src/benchmarks&#45;&gt;src/shared</title>
<path fill="none" stroke="#000000" stroke-opacity="0.200000" d="M298.35,-96.65C303.61,-95.19 322.81,-89.1 330,-76 337.27,-62.75 339.54,-53.72 330,-42 324.39,-35.1 304.55,-31.08 286.41,-28.79"/>
<polygon fill="none" stroke="#000000" stroke-opacity="0.200000" points="286.56,-26.7 280.35,-28.08 286.07,-30.87 286.56,-26.7"/>
</g>
<!-- src/benchmarks/utils&#45;&gt;src/benchmarks -->
<g id="edge4" class="edge">
<title>src/benchmarks/utils&#45;&gt;src/benchmarks</title>
<path fill="none" stroke="#000000" stroke-opacity="0.200000" d="M301.08,-76.05C301.72,-80.64 301.63,-86.32 300.8,-90.61"/>
<polygon fill="none" stroke="#000000" stroke-opacity="0.200000" points="298.81,-89.93 298.53,-96.28 302.71,-91.5 298.81,-89.93"/>
</g>
<!-- src/benchmarks/utils&#45;&gt;src/shared -->
<g id="edge3" class="edge">
<title>src/benchmarks/utils&#45;&gt;src/shared</title>
<path fill="none" stroke="#000000" stroke-opacity="0.200000" d="M288.1,-57.91C281.89,-52.27 273.51,-44.64 266.49,-38.26"/>
<polygon fill="none" stroke="#000000" stroke-opacity="0.200000" points="267.74,-36.56 261.89,-34.08 264.92,-39.67 267.74,-36.56"/>
</g>
<!-- src/server -->
<!-- src/server&#45;&gt;src/shared -->
<g id="edge7" class="edge">
<title>src/server&#45;&gt;src/shared</title>
<path fill="none" stroke="#000000" stroke-width="2" stroke-opacity="0.200000" d="M200.81,-134.83C207.05,-135.5 227.79,-136.78 238,-125.8 259.73,-102.43 258.13,-61.79 255.4,-40.29"/>
<polygon fill="#000000" fill-opacity="0.200000" stroke="#000000" stroke-width="2" stroke-opacity="0.200000" points="257.47,-39.91 254.54,-34.27 253.31,-40.51 257.47,-39.91"/>
</g>
<!-- src/server/transports -->
<!-- src/server&#45;&gt;src/server/transports -->
<g id="edge5" class="edge">
<title>src/server&#45;&gt;src/server/transports</title>
<path fill="none" stroke="#000000" stroke-width="2" stroke-opacity="0.200000" d="M199,-133.72C199,-130.01 199,-115.42 199,-106.37"/>
<polygon fill="#000000" fill-opacity="0.200000" stroke="#000000" stroke-width="2" stroke-opacity="0.200000" points="201.1,-106.27 199,-100.27 196.9,-106.27 201.1,-106.27"/>
</g>
<!-- src/server/utils -->
<g id="node7" class="node">
<title>src/server/utils</title>
<g id="a_node7"><a xlink:href="src/server/utils" xlink:title="utils">
<polygon fill="#ffffcc" stroke="black" points="156,-76 104,-76 102,-74 102,-58 154,-58 156,-60 156,-76"/>
<polyline fill="none" stroke="black" points="154,-74 102,-74 "/>
<polyline fill="none" stroke="black" points="154,-74 154,-58 "/>
<polyline fill="none" stroke="black" points="154,-74 156,-76 "/>
<text text-anchor="start" x="119.5" y="-64.8" font-family="Helvetica,sans-Serif" font-size="9.00">utils</text>
</a>
</g>
</g>
<!-- src/server&#45;&gt;src/server/utils -->
<g id="edge6" class="edge">
<title>src/server&#45;&gt;src/server/utils</title>
<path fill="none" stroke="#000000" stroke-width="2" stroke-opacity="0.200000" d="M197.51,-134.33C190.85,-133.11 164.03,-128.08 161,-125.8 146.52,-114.88 137.72,-95.4 133.11,-82.1"/>
<polygon fill="#000000" fill-opacity="0.200000" stroke="#000000" stroke-width="2" stroke-opacity="0.200000" points="135.02,-81.19 131.17,-76.13 131.02,-82.48 135.02,-81.19"/>
</g>
<!-- src/server/transports&#45;&gt;src/shared -->
<g id="edge9" class="edge">
<title>src/server/transports&#45;&gt;src/shared</title>
<path fill="none" stroke="#000000" stroke-width="2" stroke-opacity="0.200000" d="M199.45,-96.15C200.34,-94.56 202.42,-91.12 205,-89 215.29,-80.54 222.83,-85.66 232,-76 237.13,-70.6 243.93,-52.8 248.39,-39.97"/>
<polygon fill="#000000" fill-opacity="0.200000" stroke="#000000" stroke-width="2" stroke-opacity="0.200000" points="250.42,-40.51 250.37,-34.15 246.45,-39.15 250.42,-40.51"/>
</g>
<!-- src/server/transports&#45;&gt;src/server/utils -->
<g id="edge10" class="edge">
<title>src/server/transports&#45;&gt;src/server/utils</title>
<path fill="none" stroke="#000000" stroke-opacity="0.200000" d="M198.57,-96.11C197.73,-94.47 195.71,-90.94 193,-89 187.68,-85.19 174.79,-80.7 161.96,-76.85"/>
<polygon fill="none" stroke="#000000" stroke-opacity="0.200000" points="162.45,-74.8 156.1,-75.13 161.27,-78.83 162.45,-74.8"/>
</g>
<!-- src/server/transports/impls -->
<g id="node9" class="node">
<title>src/server/transports/impls</title>
<g id="a_node9"><a xlink:href="src/server/transports/impls" xlink:title="impls">
<polygon fill="#ffffcc" stroke="black" points="226,-76 174,-76 172,-74 172,-58 224,-58 226,-60 226,-76"/>
<polyline fill="none" stroke="black" points="224,-74 172,-74 "/>
<polyline fill="none" stroke="black" points="224,-74 224,-58 "/>
<polyline fill="none" stroke="black" points="224,-74 226,-76 "/>
<text text-anchor="start" x="186.5" y="-64.8" font-family="Helvetica,sans-Serif" font-size="9.00">impls</text>
</a>
</g>
</g>
<!-- src/server/transports&#45;&gt;src/server/transports/impls -->
<g id="edge8" class="edge">
<title>src/server/transports&#45;&gt;src/server/transports/impls</title>
<path fill="none" stroke="#000000" stroke-width="2" stroke-dasharray="5,2" stroke-opacity="0.200000" d="M197.47,-96.28C195.47,-94.26 194.48,-88.26 194.5,-82.3"/>
<polygon fill="#000000" fill-opacity="0.200000" stroke="#000000" stroke-width="2" stroke-opacity="0.200000" points="196.61,-82.18 194.92,-76.05 192.42,-81.89 196.61,-82.18"/>
</g>
<!-- src/server/utils&#45;&gt;src/shared -->
<g id="edge14" class="edge">
<title>src/server/utils&#45;&gt;src/shared</title>
<path fill="none" stroke="#000000" stroke-opacity="0.200000" d="M137.52,-57.83C143.59,-52.48 152.2,-45.8 161,-42 179.42,-34.04 201.54,-30.04 219.48,-28.03"/>
<polygon fill="none" stroke="#000000" stroke-opacity="0.200000" points="220.12,-30.07 225.88,-27.37 219.7,-25.89 220.12,-30.07"/>
</g>
<!-- src/server/infra -->
<g id="node8" class="node">
<title>src/server/infra</title>
<g id="a_node8"><a xlink:href="src/server/infra" xlink:title="infra">
<polygon fill="#ffffcc" stroke="black" points="90,-76 38,-76 36,-74 36,-58 88,-58 90,-60 90,-76"/>
<polyline fill="none" stroke="black" points="88,-74 36,-74 "/>
<polyline fill="none" stroke="black" points="88,-74 88,-58 "/>
<polyline fill="none" stroke="black" points="88,-74 90,-76 "/>
<text text-anchor="start" x="52.5" y="-64.8" font-family="Helvetica,sans-Serif" font-size="9.00">infra</text>
</a>
</g>
</g>
<!-- src/server/transports/impls&#45;&gt;src/server/transports -->
<g id="edge11" class="edge">
<title>src/server/transports/impls&#45;&gt;src/server/transports</title>
<path fill="none" stroke="#000000" stroke-width="2" stroke-opacity="0.200000" d="M203.08,-76.05C203.72,-80.64 203.63,-86.32 202.8,-90.61"/>
<polygon fill="#000000" fill-opacity="0.200000" stroke="#000000" stroke-width="2" stroke-opacity="0.200000" points="200.81,-89.93 200.53,-96.28 204.71,-91.5 200.81,-89.93"/>
</g>
<!-- src/server/usecases -->
<g id="node10" class="node">
<title>src/server/usecases</title>
<g id="a_node10"><a xlink:href="src/server/usecases" xlink:title="usecases">
<polygon fill="#ffffcc" stroke="black" points="105.5,-107 50.5,-107 48.5,-105 48.5,-89 103.5,-89 105.5,-91 105.5,-107"/>
<polyline fill="none" stroke="black" points="103.5,-105 48.5,-105 "/>
<polyline fill="none" stroke="black" points="103.5,-105 103.5,-89 "/>
<polyline fill="none" stroke="black" points="103.5,-105 105.5,-107 "/>
<text text-anchor="start" x="56.5" y="-95.8" font-family="Helvetica,sans-Serif" font-size="9.00">usecases</text>
</a>
</g>
</g>
<!-- src/server/usecases&#45;&gt;src/server/utils -->
<g id="edge12" class="edge">
<title>src/server/usecases&#45;&gt;src/server/utils</title>
<path fill="none" stroke="#000000" stroke-opacity="0.200000" d="M91.48,-88.92C97.01,-85.84 103.4,-82.28 109.32,-78.97"/>
<polygon fill="none" stroke="#000000" stroke-opacity="0.200000" points="110.38,-80.79 114.59,-76.03 108.33,-77.12 110.38,-80.79"/>
</g>
<!-- src/server/usecases&#45;&gt;src/server/infra -->
<g id="edge13" class="edge">
<title>src/server/usecases&#45;&gt;src/server/infra</title>
<path fill="none" stroke="#000000" stroke-width="2" stroke-opacity="0.200000" d="M73.03,-88.77C71.97,-86.58 70.8,-84.16 69.65,-81.77"/>
<polygon fill="#000000" fill-opacity="0.200000" stroke="#000000" stroke-width="2" stroke-opacity="0.200000" points="71.53,-80.84 67.03,-76.35 67.75,-82.67 71.53,-80.84"/>
</g>
</g>
</svg>
