<?xml version="1.0" encoding="UTF-8" standalone="no"?>
<!DOCTYPE svg PUBLIC "-//W3C//DTD SVG 1.1//EN"
 "http://www.w3.org/Graphics/SVG/1.1/DTD/svg11.dtd">
<!-- Generated by graphviz version 2.43.0 (0)
 -->
<!-- Title: dependency&#45;cruiser output Pages: 1 -->
<svg width="355pt" height="182pt"
 viewBox="0.00 0.00 355.00 182.40" xmlns="http://www.w3.org/2000/svg" xmlns:xlink="http://www.w3.org/1999/xlink">
<g id="graph0" class="graph" transform="scale(1 1) rotate(0) translate(4 178.4)">
<title>dependency&#45;cruiser output</title>
<polygon fill="white" stroke="transparent" points="-4,4 -4,-178.4 351,-178.4 351,4 -4,4"/>
<g id="clust1" class="cluster">
<title>cluster_src</title>
<path fill="#ffffff" stroke="black" stroke-width="2" d="M20,-8C20,-8 327,-8 327,-8 333,-8 339,-14 339,-20 339,-20 339,-154.4 339,-154.4 339,-160.4 333,-166.4 327,-166.4 327,-166.4 20,-166.4 20,-166.4 14,-166.4 8,-160.4 8,-154.4 8,-154.4 8,-20 8,-20 8,-14 14,-8 20,-8"/>
<text text-anchor="middle" x="173.5" y="-155.2" font-family="Helvetica,sans-Serif" font-weight="bold" font-size="9.00">src</text>
</g>
<g id="clust2" class="cluster">
<title>cluster_src/benchmarks</title>
<path fill="#ffffff" stroke="black" stroke-width="2" d="M263,-58C263,-58 319,-58 319,-58 325,-58 331,-64 331,-70 331,-70 331,-128.4 331,-128.4 331,-134.4 325,-140.4 319,-140.4 319,-140.4 263,-140.4 263,-140.4 257,-140.4 251,-134.4 251,-128.4 251,-128.4 251,-70 251,-70 251,-64 257,-58 263,-58"/>
<text text-anchor="start" x="259" y="-129.2" font-family="Helvetica,sans-Serif" font-weight="bold" font-size="9.00">benchmarks</text>
</g>
<g id="clust3" class="cluster">
<title>cluster_src/server</title>
<path fill="#ffffff" stroke="black" stroke-width="2" d="M40,-16C40,-16 231,-16 231,-16 237,-16 243,-22 243,-28 243,-28 243,-128.4 243,-128.4 243,-134.4 237,-140.4 231,-140.4 231,-140.4 40,-140.4 40,-140.4 34,-140.4 28,-134.4 28,-128.4 28,-128.4 28,-28 28,-28 28,-22 34,-16 40,-16"/>
<text text-anchor="start" x="119" y="-129.2" font-family="Helvetica,sans-Serif" font-weight="bold" font-size="9.00">server</text>
</g>
<g id="clust4" class="cluster">
<title>cluster_src/server/transports</title>
<path fill="#ffffff" stroke="black" stroke-width="2" d="M114,-24C114,-24 161,-24 161,-24 167,-24 173,-30 173,-36 173,-36 173,-90.8 173,-90.8 173,-96.8 167,-102.8 161,-102.8 161,-102.8 114,-102.8 114,-102.8 108,-102.8 102,-96.8 102,-90.8 102,-90.8 102,-36 102,-36 102,-30 108,-24 114,-24"/>
<text text-anchor="start" x="110" y="-91.6" font-family="Helvetica,sans-Serif" font-weight="bold" font-size="9.00">transports</text>
</g>
<!-- src -->
<!-- src/benchmarks -->
<!-- src/server -->
<!-- src/benchmarks&#45;&gt;src/server -->
<g id="edge1" class="edge">
<title>src/benchmarks&#45;&gt;src/server</title>
<path fill="none" stroke="#000000" stroke-width="2" stroke-opacity="0.200000" d="M284.18,-112.6C267.47,-112.6 250.75,-112.6 234.03,-112.6"/>
<polygon fill="#000000" fill-opacity="0.200000" stroke="#000000" stroke-width="2" stroke-opacity="0.200000" points="233.88,-110.5 227.88,-112.6 233.87,-114.7 233.88,-110.5"/>
</g>
<!-- src/server/misc -->
<g id="node4" class="node">
<title>src/server/misc</title>
<g id="a_node4"><a xlink:href="src/server/misc" xlink:title="misc">
<polygon fill="#ffffcc" stroke="black" points="235,-50 183,-50 181,-48 181,-32 233,-32 235,-34 235,-50"/>
<polyline fill="none" stroke="black" points="233,-48 181,-48 "/>
<polyline fill="none" stroke="black" points="233,-48 233,-32 "/>
<polyline fill="none" stroke="black" points="233,-48 235,-50 "/>
<text text-anchor="start" x="197" y="-38.8" font-family="Helvetica,sans-Serif" font-size="9.00">misc</text>
</a>
</g>
</g>
<!-- src/benchmarks&#45;&gt;src/server/misc -->
<g id="edge2" class="edge">
<title>src/benchmarks&#45;&gt;src/server/misc</title>
<path fill="none" stroke="#000000" stroke-width="2" stroke-opacity="0.200000" d="M287.91,-111.79C293.74,-112.26 311.34,-112.77 319,-102.8 331.13,-87.01 332.04,-73.05 319,-58 309.06,-46.53 270.06,-43.09 241.08,-42.16"/>
<polygon fill="#000000" fill-opacity="0.200000" stroke="#000000" stroke-width="2" stroke-opacity="0.200000" points="241.11,-40.06 235.06,-42 241,-44.26 241.11,-40.06"/>
</g>
<!-- src/benchmarks/utils -->
<g id="node5" class="node">
<title>src/benchmarks/utils</title>
<g id="a_node5"><a xlink:href="src/benchmarks/utils" xlink:title="utils">
<polygon fill="#ffffcc" stroke="black" points="313,-84 261,-84 259,-82 259,-66 311,-66 313,-68 313,-84"/>
<polyline fill="none" stroke="black" points="311,-82 259,-82 "/>
<polyline fill="none" stroke="black" points="311,-82 311,-66 "/>
<polyline fill="none" stroke="black" points="311,-82 313,-84 "/>
<text text-anchor="start" x="276.5" y="-72.8" font-family="Helvetica,sans-Serif" font-size="9.00">utils</text>
</a>
</g>
</g>
<!-- src/benchmarks&#45;&gt;src/benchmarks/utils -->
<g id="edge3" class="edge">
<title>src/benchmarks&#45;&gt;src/benchmarks/utils</title>
<path fill="none" stroke="#000000" stroke-width="2" stroke-opacity="0.200000" d="M286,-110.72C286,-107.91 286,-98.85 286,-90.7"/>
<polygon fill="#000000" fill-opacity="0.200000" stroke="#000000" stroke-width="2" stroke-opacity="0.200000" points="288.1,-90.21 286,-84.21 283.9,-90.21 288.1,-90.21"/>
</g>
<!-- src/server&#45;&gt;src/server/misc -->
<g id="edge6" class="edge">
<title>src/server&#45;&gt;src/server/misc</title>
<path fill="none" stroke="#000000" stroke-width="2" stroke-opacity="0.200000" d="M225.75,-110.62C224.25,-104.82 216.47,-74.74 211.72,-56.38"/>
<polygon fill="#000000" fill-opacity="0.200000" stroke="#000000" stroke-width="2" stroke-opacity="0.200000" points="213.66,-55.5 210.12,-50.22 209.59,-56.55 213.66,-55.5"/>
</g>
<!-- src/server&#45;&gt;src/benchmarks/utils -->
<g id="edge5" class="edge">
<title>src/server&#45;&gt;src/benchmarks/utils</title>
<path fill="none" stroke="#000000" stroke-width="2" stroke-opacity="0.200000" d="M227.5,-111.05C230.88,-109.77 239.35,-106.45 246,-102.8 254.17,-98.31 262.82,-92.64 269.97,-87.68"/>
<polygon fill="#000000" fill-opacity="0.200000" stroke="#000000" stroke-width="2" stroke-opacity="0.200000" points="271.43,-89.22 275.12,-84.05 269.01,-85.79 271.43,-89.22"/>
</g>
<!-- src/server/transports -->
<!-- src/server&#45;&gt;src/server/transports -->
<g id="edge7" class="edge">
<title>src/server&#45;&gt;src/server/transports</title>
<path fill="none" stroke="#000000" stroke-width="2" stroke-opacity="0.200000" d="M224.42,-111.39C223.21,-111.22 221.5,-111 220,-110.8 206.01,-108.98 167.44,-112.3 157,-102.8 151.57,-97.86 150.5,-89.16 150.51,-83.02"/>
<polygon fill="#000000" fill-opacity="0.200000" stroke="#000000" stroke-width="2" stroke-opacity="0.200000" points="152.62,-82.93 150.89,-76.81 148.43,-82.68 152.62,-82.93"/>
</g>
<!-- src/benchmarks/utils&#45;&gt;src/server/misc -->
<g id="edge4" class="edge">
<title>src/benchmarks/utils&#45;&gt;src/server/misc</title>
<path fill="none" stroke="#000000" stroke-opacity="0.200000" d="M266.32,-65.93C256.34,-61.83 244.11,-56.81 233.43,-52.43"/>
<polygon fill="none" stroke="#000000" stroke-opacity="0.200000" points="234.02,-50.41 227.68,-50.07 232.43,-54.29 234.02,-50.41"/>
</g>
<!-- src/server/transports&#45;&gt;src/server/misc -->
<g id="edge8" class="edge">
<title>src/server/transports&#45;&gt;src/server/misc</title>
<path fill="none" stroke="#000000" stroke-width="2" stroke-opacity="0.200000" d="M151.08,-72.97C151.36,-70.15 152.52,-62.24 157,-58 158.62,-56.47 166.19,-53.84 175.03,-51.15"/>
<polygon fill="#000000" fill-opacity="0.200000" stroke="#000000" stroke-width="2" stroke-opacity="0.200000" points="175.81,-53.1 180.96,-49.38 174.61,-49.08 175.81,-53.1"/>
</g>
<!-- src/server/transports/impls -->
<g id="node8" class="node">
<title>src/server/transports/impls</title>
<g id="a_node8"><a xlink:href="src/server/transports/impls" xlink:title="impls">
<polygon fill="#ffffcc" stroke="black" points="165,-50 113,-50 111,-48 111,-32 163,-32 165,-34 165,-50"/>
<polyline fill="none" stroke="black" points="163,-48 111,-48 "/>
<polyline fill="none" stroke="black" points="163,-48 163,-32 "/>
<polyline fill="none" stroke="black" points="163,-48 165,-50 "/>
<text text-anchor="start" x="125.5" y="-38.8" font-family="Helvetica,sans-Serif" font-size="9.00">impls</text>
</a>
</g>
</g>
<!-- src/server/transports&#45;&gt;src/server/transports/impls -->
<g id="edge9" class="edge">
<title>src/server/transports&#45;&gt;src/server/transports/impls</title>
<path fill="none" stroke="#000000" stroke-width="2" stroke-dasharray="5,2" stroke-opacity="0.200000" d="M149.39,-73.77C144.41,-72.34 141.59,-64.38 139,-58 138.7,-57.27 138.4,-56.53 138.09,-55.78"/>
<polygon fill="#000000" fill-opacity="0.200000" stroke="#000000" stroke-width="2" stroke-opacity="0.200000" points="140.03,-54.96 135.92,-50.1 136.1,-56.46 140.03,-54.96"/>
</g>
<!-- src/server/infra -->
<g id="node7" class="node">
<title>src/server/infra</title>
<g id="a_node7"><a xlink:href="src/server/infra" xlink:title="infra">
<polygon fill="#ffffcc" stroke="black" points="92,-50 40,-50 38,-48 38,-32 90,-32 92,-34 92,-50"/>
<polyline fill="none" stroke="black" points="90,-48 38,-48 "/>
<polyline fill="none" stroke="black" points="90,-48 90,-32 "/>
<polyline fill="none" stroke="black" points="90,-48 92,-50 "/>
<text text-anchor="start" x="54.5" y="-38.8" font-family="Helvetica,sans-Serif" font-size="9.00">infra</text>
</a>
</g>
</g>
<!-- src/server/transports/impls&#45;&gt;src/server/transports -->
<g id="edge10" class="edge">
<title>src/server/transports/impls&#45;&gt;src/server/transports</title>
<path fill="none" stroke="#000000" stroke-width="2" stroke-opacity="0.200000" d="M147.37,-50.1C148.75,-52.62 149.95,-55.42 151,-58 152.33,-61.29 153.73,-65 154.23,-68.02"/>
<polygon fill="#000000" fill-opacity="0.200000" stroke="#000000" stroke-width="2" stroke-opacity="0.200000" points="152.22,-67.42 152.45,-73.77 156.23,-68.66 152.22,-67.42"/>
</g>
<!-- src/server/usecases -->
<g id="node9" class="node">
<title>src/server/usecases</title>
<g id="a_node9"><a xlink:href="src/server/usecases" xlink:title="usecases">
<polygon fill="#ffffcc" stroke="black" points="93.5,-84 38.5,-84 36.5,-82 36.5,-66 91.5,-66 93.5,-68 93.5,-84"/>
<polyline fill="none" stroke="black" points="91.5,-82 36.5,-82 "/>
<polyline fill="none" stroke="black" points="91.5,-82 91.5,-66 "/>
<polyline fill="none" stroke="black" points="91.5,-82 93.5,-84 "/>
<text text-anchor="start" x="44.5" y="-72.8" font-family="Helvetica,sans-Serif" font-size="9.00">usecases</text>
</a>
</g>
</g>
<!-- src/server/usecases&#45;&gt;src/server/misc -->
<g id="edge11" class="edge">
<title>src/server/usecases&#45;&gt;src/server/misc</title>
<path fill="none" stroke="#000000" stroke-opacity="0.200000" d="M79.48,-65.87C85.36,-62.92 92.34,-59.86 99,-58 130.33,-49.27 140.95,-55.23 174.72,-50.08"/>
<polygon fill="none" stroke="#000000" stroke-opacity="0.200000" points="175.25,-52.12 180.82,-49.07 174.56,-47.98 175.25,-52.12"/>
</g>
<!-- src/server/usecases&#45;&gt;src/server/infra -->
<g id="edge12" class="edge">
<title>src/server/usecases&#45;&gt;src/server/infra</title>
<path fill="none" stroke="#000000" stroke-width="2" stroke-opacity="0.200000" d="M65,-65.93C65,-63.04 65,-59.69 65,-56.43"/>
<polygon fill="#000000" fill-opacity="0.200000" stroke="#000000" stroke-width="2" stroke-opacity="0.200000" points="67.1,-56.41 65,-50.41 62.9,-56.41 67.1,-56.41"/>
</g>
</g>
</svg>
